<svg id="Layer_1" data-name="Layer 1" xmlns="http://www.w3.org/2000/svg" viewBox="0 0 126 126"><defs><style>.cls-1{fill:#ccf4ff;}.cls-2{fill:#e0e02b;}</style></defs><title>brand</title><path class="cls-1" d="M353.58,346.28v47.87q0,11.66,8.38,11.66a8.35,8.35,0,0,0,6.06-2.43,7.94,7.94,0,0,0,2.49-5.89,8.36,8.36,0,0,0-2.34-6,7.67,7.67,0,0,0-5.74-2.43,10.26,10.26,0,0,0-5.51,2.11V367q3.87-.34,5.86-.35A28.74,28.74,0,0,1,384,375.58a30.5,30.5,0,0,1-.15,43.06A31.27,31.27,0,0,1,349,424.56a28.68,28.68,0,0,1-10.28-7.73q-7-8.44-7-21.86V346.28Z" transform="translate(-296.5 -321.5)"/><path class="cls-1" d="M399,396.34a28.49,28.49,0,0,1-1.18,21.92,33.87,33.87,0,0,1-6.61,9.47,36.34,36.34,0,0,1-9.52,6.68A34.84,34.84,0,0,1,359.08,437,30.06,30.06,0,0,1,340.73,425a39.74,39.74,0,0,0,19.15,7.11c.42,0,.83.08,1.24.1l1.24,0c.82.06,1.65,0,2.47,0a39.83,39.83,0,0,0,4.88-.56,36.41,36.41,0,0,0,9.27-3,37.12,37.12,0,0,0,8.12-5.31,36.36,36.36,0,0,0,6.35-7.46l.66-1.05a8.35,8.35,0,0,0,.62-1.08l1.13-2.24.94-2.34c.31-.79.5-1.61.77-2.42A41.46,41.46,0,0,0,399,396.34Z" transform="translate(-296.5 -321.5)"/><rect class="cls-2" x="34" y="13" width="23" height="9"/><path class="cls-1" d="M359.5,447.5a63,63,0,1,1,63-63A63.07,63.07,0,0,1,359.5,447.5Zm0-122a59,59,0,1,0,59,59A59.07,59.07,0,0,0,359.5,325.5Z" transform="translate(-296.5 -321.5)"/></svg>