<svg id="Layer_1" data-name="Layer 1" xmlns="http://www.w3.org/2000/svg" viewBox="0 0 126 126"><defs><style>.cls-1{fill:#ccf4ff;}</style></defs><title>vidpro</title><path class="cls-1" d="M376.75,579.5a63,63,0,1,1,63-63A63.07,63.07,0,0,1,376.75,579.5Zm0-122a59,59,0,1,0,59,59A59.07,59.07,0,0,0,376.75,457.5Z" transform="translate(-313.75 -453.5)"/><path class="cls-1" d="M397.25,512V501.83a5.74,5.74,0,0,0-5.74-5.74H339a5.74,5.74,0,0,0-5.74,5.74v29.34a5.74,5.74,0,0,0,5.74,5.74h52.52a5.74,5.74,0,0,0,5.74-5.74V521l23,15V497Z" transform="translate(-313.75 -453.5)"/></svg>